<svg width="140" height="43" viewBox="0 0 140 43" fill="none" xmlns="http://www.w3.org/2000/svg">
<g clip-path="url(#clip0_117_3)">
<path d="M15.9266 5C3.53924 5 0 8.54 0 20.93C0 33.32 3.54809 36.86 15.9266 36.86C28.3051 36.86 31.8532 33.32 31.8532 20.93C31.8532 8.54 28.3051 5 15.9266 5Z" fill="#00AA45"/>
<path fill-rule="evenodd" clip-rule="evenodd" d="M4.12246 9.12334C2.0406 11.2056 1.13761 14.7588 1.13761 20.93C1.13761 27.1007 2.04263 30.654 4.12559 32.7365C6.2087 34.8191 9.76142 35.7221 15.9266 35.7221C22.0918 35.7221 25.6445 34.8191 27.7276 32.7365C29.8106 30.654 30.7156 27.1007 30.7156 20.93C30.7156 14.7593 29.8106 11.206 27.7276 9.12352C25.6445 7.04093 22.0918 6.13786 15.9266 6.13786C9.75675 6.13786 6.20432 7.04103 4.12246 9.12334ZM0 20.93C0 8.54 3.53924 5 15.9266 5C28.3051 5 31.8532 8.54 31.8532 20.93C31.8532 33.32 28.3051 36.86 15.9266 36.86C3.54809 36.86 0 33.32 0 20.93Z" fill="#219653"/>
<path fill-rule="evenodd" clip-rule="evenodd" d="M15.4015 12.3961H8.5321V31.7396H13.8701V27.6939H15.4015C19.755 27.6939 23.3211 24.2894 23.3211 20.045C23.3211 15.8005 19.755 12.3961 15.4015 12.3961ZM13.8701 22.5104V17.5796H15.4015C16.8477 17.5796 17.9831 18.7034 17.9831 20.045C17.9831 21.3865 16.8477 22.5104 15.4015 22.5104H13.8701Z" fill="#24292E"/>
<path fill-rule="evenodd" clip-rule="evenodd" d="M10.2385 11.8271H16.5391C20.5988 11.8271 23.8899 14.997 23.8899 18.9071C23.8899 22.8173 20.5988 25.9872 16.5391 25.9872H14.4389V30.0329H10.2385V11.8271ZM14.4389 21.9414H16.5391C18.279 21.9414 19.6895 20.583 19.6895 18.9071C19.6895 17.2313 18.279 15.8729 16.5391 15.8729H14.4389V21.9414Z" fill="white"/>
<path fill-rule="evenodd" clip-rule="evenodd" d="M9.66974 11.2582H16.5392C20.8926 11.2582 24.4587 14.6627 24.4587 18.9071C24.4587 23.1516 20.8926 26.5561 16.5392 26.5561H15.0078V30.6018H9.66974V11.2582ZM10.8074 12.3961V29.464H13.8702V25.4182H16.5392C20.3052 25.4182 23.3211 22.4831 23.3211 18.9071C23.3211 15.3313 20.3052 12.3961 16.5392 12.3961H10.8074ZM13.8702 15.3039H16.5392C18.5728 15.3039 20.2583 16.8971 20.2583 18.9071C20.2583 20.9172 18.5728 22.5104 16.5392 22.5104H13.8702V15.3039ZM15.0078 16.4418V21.3725H16.5392C17.9854 21.3725 19.1207 20.2487 19.1207 18.9071C19.1207 17.5656 17.9854 16.4418 16.5392 16.4418H15.0078Z" fill="#24292E"/>
</g>
<path d="M35.8477 30.1094C35.7747 30.0365 35.7383 29.8815 35.7383 29.6445C35.7383 29.2799 35.7747 29.0977 35.8477 29.0977C35.9935 29.0977 36.2031 29.0703 36.4766 29.0156C36.75 28.9609 37.0052 28.888 37.2422 28.7969C37.4792 28.6875 37.6159 28.5872 37.6523 28.4961C37.7617 28.0768 37.8164 27.2747 37.8164 26.0898V15.7539C37.8164 14.7331 37.7617 14.0221 37.6523 13.6211C37.6159 13.5117 37.4701 13.4023 37.2148 13.293C36.9779 13.1654 36.7227 13.0651 36.4492 12.9922C36.1758 12.901 35.9661 12.8555 35.8203 12.8555C35.7474 12.8555 35.7109 12.6914 35.7109 12.3633C35.7109 12.0716 35.7383 11.8984 35.793 11.8438C36.6133 11.8802 37.3607 11.9167 38.0352 11.9531C38.7096 11.9714 39.3021 11.9805 39.8125 11.9805C40.0677 11.9805 40.3411 11.9805 40.6328 11.9805C40.9427 11.9622 41.2526 11.944 41.5625 11.9258C41.8724 11.9076 42.1732 11.8984 42.4648 11.8984C42.7565 11.8984 43.0391 11.8984 43.3125 11.8984C44.4062 11.8984 45.418 12.0443 46.3477 12.3359C46.9857 12.5182 47.569 12.8281 48.0977 13.2656C48.6445 13.6849 49.082 14.2044 49.4102 14.8242C49.7383 15.4258 49.9023 16.1185 49.9023 16.9023C49.9023 17.8867 49.638 18.7891 49.1094 19.6094C48.599 20.4297 47.8971 21.0951 47.0039 21.6055C46.1289 22.0977 45.1445 22.3438 44.0508 22.3438C43.6862 22.3438 43.3216 22.2891 42.957 22.1797C42.6107 22.0703 42.3737 21.9245 42.2461 21.7422C42.1732 21.6328 42.1276 21.4323 42.1094 21.1406C42.0911 20.849 42.1276 20.7031 42.2188 20.7031C42.474 20.849 42.8841 20.9219 43.4492 20.9219C44.9805 20.9219 45.7461 19.6823 45.7461 17.2031C45.7461 14.7057 44.9076 13.457 43.2305 13.457C42.5924 13.457 42.1732 13.5299 41.9727 13.6758C41.7539 13.8398 41.6445 14.7331 41.6445 16.3555V26.1445C41.6445 27.1107 41.7083 27.8581 41.8359 28.3867C41.8724 28.5326 42.0273 28.6602 42.3008 28.7695C42.5742 28.8789 42.875 28.9609 43.2031 29.0156C43.5312 29.0703 43.7865 29.0977 43.9688 29.0977C44.0417 29.0977 44.0781 29.2708 44.0781 29.6172C44.0781 29.7995 44.0599 29.9635 44.0234 30.1094C41.8359 30 40.4414 29.9453 39.8398 29.9453L35.8477 30.1094ZM57.2031 30.1914C56.0911 30.1914 55.0612 29.9089 54.1133 29.3438C53.1836 28.7786 52.4362 28.0221 51.8711 27.0742C51.3242 26.1263 51.0508 25.0872 51.0508 23.957C51.0508 22.7904 51.2969 21.7422 51.7891 20.8125C52.2995 19.8828 53.0013 19.1445 53.8945 18.5977C54.7878 18.0508 55.8177 17.7773 56.9844 17.7773C58.1328 17.7773 59.1081 18.0508 59.9102 18.5977C60.7305 19.1263 61.3503 19.7917 61.7695 20.5938C62.207 21.3776 62.4258 22.1706 62.4258 22.9727C62.4258 23.3919 62.3346 23.6654 62.1523 23.793C61.9883 23.9206 61.651 23.9844 61.1406 23.9844H54.9609C54.8516 23.9844 54.7969 24.0482 54.7969 24.1758C54.7969 24.832 54.9154 25.4518 55.1523 26.0352C55.4076 26.6185 55.7721 27.0924 56.2461 27.457C56.7383 27.8216 57.3307 28.0039 58.0234 28.0039C58.6432 28.0039 59.2174 27.9128 59.7461 27.7305C60.1107 27.6211 60.3932 27.5208 60.5938 27.4297C60.7943 27.3385 60.9766 27.2383 61.1406 27.1289C61.3229 27.0013 61.5326 26.8464 61.7695 26.6641C61.9336 26.737 62.0156 26.9102 62.0156 27.1836C62.0156 27.4206 61.9792 27.6029 61.9062 27.7305C61.7969 28.0221 61.5052 28.3594 61.0312 28.7422C60.5755 29.125 60.0104 29.4622 59.3359 29.7539C58.6797 30.0456 57.9688 30.1914 57.2031 30.1914ZM54.9883 22.4805H58.4609C58.7161 22.4805 58.8438 22.3073 58.8438 21.9609C58.8438 21.2682 58.6523 20.6484 58.2695 20.1016C57.9049 19.5547 57.431 19.2812 56.8477 19.2812C56.319 19.2812 55.8997 19.4727 55.5898 19.8555C55.2982 20.2201 55.0885 20.6302 54.9609 21.0859C54.8516 21.5417 54.7969 21.9154 54.7969 22.207C54.7969 22.3893 54.8607 22.4805 54.9883 22.4805ZM69.8086 30.1914C68.6966 30.1914 67.6667 29.9089 66.7188 29.3438C65.7891 28.7786 65.0417 28.0221 64.4766 27.0742C63.9297 26.1263 63.6562 25.0872 63.6562 23.957C63.6562 22.7904 63.9023 21.7422 64.3945 20.8125C64.9049 19.8828 65.6068 19.1445 66.5 18.5977C67.3932 18.0508 68.4232 17.7773 69.5898 17.7773C70.7383 17.7773 71.7135 18.0508 72.5156 18.5977C73.3359 19.1263 73.9557 19.7917 74.375 20.5938C74.8125 21.3776 75.0312 22.1706 75.0312 22.9727C75.0312 23.3919 74.9401 23.6654 74.7578 23.793C74.5938 23.9206 74.2565 23.9844 73.7461 23.9844H67.5664C67.457 23.9844 67.4023 24.0482 67.4023 24.1758C67.4023 24.832 67.5208 25.4518 67.7578 26.0352C68.013 26.6185 68.3776 27.0924 68.8516 27.457C69.3438 27.8216 69.9362 28.0039 70.6289 28.0039C71.2487 28.0039 71.8229 27.9128 72.3516 27.7305C72.7161 27.6211 72.9987 27.5208 73.1992 27.4297C73.3997 27.3385 73.582 27.2383 73.7461 27.1289C73.9284 27.0013 74.138 26.8464 74.375 26.6641C74.5391 26.737 74.6211 26.9102 74.6211 27.1836C74.6211 27.4206 74.5846 27.6029 74.5117 27.7305C74.4023 28.0221 74.1107 28.3594 73.6367 28.7422C73.181 29.125 72.6159 29.4622 71.9414 29.7539C71.2852 30.0456 70.5742 30.1914 69.8086 30.1914ZM67.5938 22.4805H71.0664C71.3216 22.4805 71.4492 22.3073 71.4492 21.9609C71.4492 21.2682 71.2578 20.6484 70.875 20.1016C70.5104 19.5547 70.0365 19.2812 69.4531 19.2812C68.9245 19.2812 68.5052 19.4727 68.1953 19.8555C67.9036 20.2201 67.694 20.6302 67.5664 21.0859C67.457 21.5417 67.4023 21.9154 67.4023 22.207C67.4023 22.3893 67.4661 22.4805 67.5938 22.4805ZM76.6992 30.1094C76.6263 30.0365 76.5898 29.8451 76.5898 29.5352C76.5898 29.2435 76.6263 29.0977 76.6992 29.0977C76.8451 29.0977 77.0547 29.0612 77.3281 28.9883C77.6016 28.8971 77.8568 28.7969 78.0938 28.6875C78.3307 28.5781 78.4583 28.487 78.4766 28.4141C78.6042 27.9036 78.668 27.2109 78.668 26.3359V22.5898C78.668 21.569 78.5039 20.8854 78.1758 20.5391C78.0299 20.3568 77.8294 20.2292 77.5742 20.1562C77.3372 20.0833 77.1276 20.0378 76.9453 20.0195C76.763 19.9831 76.6719 19.9466 76.6719 19.9102C76.6719 19.2721 76.7174 18.9531 76.8086 18.9531C77.2826 18.9531 77.9388 18.8529 78.7773 18.6523C79.6341 18.4336 80.5365 18.224 81.4844 18.0234L82.1133 17.8867C82.2044 17.8867 82.2956 17.9505 82.3867 18.0781C82.4779 18.1875 82.5234 18.2786 82.5234 18.3516C82.5052 18.4609 82.4779 18.6797 82.4414 19.0078C82.4232 19.3359 82.4049 19.5182 82.3867 19.5547C83.2982 18.3698 84.3281 17.7773 85.4766 17.7773C86.2969 17.7773 87.0807 18.1146 87.8281 18.7891C87.8281 19.737 87.7096 20.4388 87.4727 20.8945C87.2539 21.3503 86.8438 21.5781 86.2422 21.5781C85.8776 21.5781 85.4583 21.3685 84.9844 20.9492C84.5104 20.5299 84.0911 20.3203 83.7266 20.3203C83.362 20.3203 83.0703 20.4661 82.8516 20.7578C82.6328 21.0312 82.4688 21.3867 82.3594 21.8242C82.2682 22.2617 82.2227 22.7174 82.2227 23.1914V25.9531C82.2227 27.138 82.2865 27.9583 82.4141 28.4141C82.4505 28.487 82.5781 28.5781 82.7969 28.6875C83.0156 28.7969 83.2526 28.8971 83.5078 28.9883C83.763 29.0612 83.9362 29.0977 84.0273 29.0977C84.0638 29.0977 84.0911 29.1706 84.1094 29.3164C84.1276 29.4622 84.1367 29.6172 84.1367 29.7812C84.1367 29.9453 84.1185 30.0547 84.082 30.1094C83.9362 30.0911 83.6263 30.0638 83.1523 30.0273C82.6784 30.0091 82.1771 29.9818 81.6484 29.9453C81.138 29.9089 80.737 29.8906 80.4453 29.8906C80.2266 29.8906 79.9258 29.8997 79.543 29.918C79.1784 29.9362 78.7956 29.9635 78.3945 30C77.9935 30.0182 77.638 30.0365 77.3281 30.0547C77.0182 30.0911 76.8086 30.1094 76.6992 30.1094ZM89.3867 30.1094C89.3138 30.0365 89.2773 29.8815 89.2773 29.6445C89.2773 29.2799 89.2956 29.0977 89.332 29.0977C89.4779 29.0977 89.6875 29.0703 89.9609 29.0156C90.2526 28.9427 90.5169 28.8516 90.7539 28.7422C90.9909 28.6328 91.1276 28.5326 91.1641 28.4414C91.2917 27.9857 91.3555 27.2474 91.3555 26.2266V15.7812C91.3555 14.6328 91.2917 13.9219 91.1641 13.6484C91.1094 13.5026 90.9635 13.375 90.7266 13.2656C90.5078 13.1562 90.2708 13.0742 90.0156 13.0195C89.7786 12.9466 89.5872 12.9102 89.4414 12.9102C89.3685 12.9102 89.332 12.7279 89.332 12.3633C89.332 12.0898 89.3503 11.9349 89.3867 11.8984L93.1875 12.0625C93.4245 12.0807 93.8711 12.0716 94.5273 12.0352C95.2018 11.9987 96.0859 11.9531 97.1797 11.8984C97.2344 11.9714 97.2617 12.1628 97.2617 12.4727C97.2617 12.7643 97.2253 12.9102 97.1523 12.9102C97.043 12.9102 96.8516 12.9466 96.5781 13.0195C96.3229 13.0924 96.0677 13.1836 95.8125 13.293C95.5755 13.3841 95.4388 13.4753 95.4023 13.5664C95.2565 13.9674 95.1836 14.7422 95.1836 15.8906V19.7734L95.2383 19.8555L98.5195 19.9102C98.7747 19.9102 99.1667 19.9102 99.6953 19.9102C100.224 19.8919 100.898 19.8737 101.719 19.8555C101.755 19.819 101.773 19.7826 101.773 19.7461V15.7812C101.773 14.7969 101.71 14.0768 101.582 13.6211C101.546 13.5117 101.409 13.4023 101.172 13.293C100.953 13.1836 100.716 13.0924 100.461 13.0195C100.206 12.9466 100.005 12.9102 99.8594 12.9102C99.8229 12.9102 99.7865 12.8372 99.75 12.6914C99.7318 12.5456 99.7318 12.3906 99.75 12.2266C99.7682 12.0443 99.7956 11.9349 99.832 11.8984L103.906 12.0625C104.18 12.0625 105.41 12.0078 107.598 11.8984C107.652 12.0625 107.68 12.2266 107.68 12.3906C107.68 12.737 107.634 12.9102 107.543 12.9102C107.434 12.9102 107.242 12.9466 106.969 13.0195C106.714 13.0924 106.467 13.1836 106.23 13.293C105.993 13.3841 105.857 13.4753 105.82 13.5664C105.747 13.8398 105.693 14.168 105.656 14.5508C105.62 14.9336 105.602 15.3802 105.602 15.8906V26.1172C105.602 26.6094 105.62 27.0469 105.656 27.4297C105.693 27.8125 105.747 28.1497 105.82 28.4414C105.857 28.5143 105.984 28.6055 106.203 28.7148C106.44 28.806 106.686 28.888 106.941 28.9609C107.215 29.0339 107.406 29.0703 107.516 29.0703C107.589 29.0703 107.625 29.2617 107.625 29.6445C107.625 29.7904 107.598 29.9453 107.543 30.1094C107.47 30.1094 107.297 30.1003 107.023 30.082C106.75 30.0638 106.385 30.0365 105.93 30C105.474 29.9635 105.073 29.9362 104.727 29.918C104.38 29.8997 104.089 29.8906 103.852 29.8906C103.615 29.8906 103.286 29.8997 102.867 29.918C102.466 29.9362 102.047 29.9635 101.609 30C101.19 30.0182 100.807 30.0365 100.461 30.0547C100.115 30.0911 99.8867 30.1094 99.7773 30.1094C99.7409 30.0547 99.7135 29.9453 99.6953 29.7812C99.6771 29.6172 99.6771 29.4622 99.6953 29.3164C99.7318 29.1706 99.7682 29.0977 99.8047 29.0977C99.9505 29.0977 100.16 29.0612 100.434 28.9883C100.707 28.9154 100.962 28.8242 101.199 28.7148C101.436 28.5872 101.573 28.4779 101.609 28.3867C101.719 27.9674 101.773 27.2474 101.773 26.2266V21.6602L101.719 21.5508L98.5195 21.4961C96.2591 21.5143 95.1289 21.5417 95.1289 21.5781L95.1836 21.6328V26.1172C95.1836 26.5911 95.2018 27.0195 95.2383 27.4023C95.2747 27.7852 95.3294 28.1224 95.4023 28.4141C95.4388 28.487 95.5664 28.5781 95.7852 28.6875C96.0221 28.7969 96.2682 28.8971 96.5234 28.9883C96.7969 29.0612 96.9883 29.0977 97.0977 29.0977C97.1706 29.0977 97.207 29.2344 97.207 29.5078C97.2253 29.7812 97.207 29.9818 97.1523 30.1094C96.2591 30.0547 95.5026 30.0091 94.8828 29.9727C94.2812 29.918 93.7344 29.8906 93.2422 29.8906C92.6406 29.8906 92.0299 29.918 91.4102 29.9727C90.8086 30.0091 90.1341 30.0547 89.3867 30.1094ZM119 30.1367C118.891 30.1367 118.836 29.9727 118.836 29.6445V28.6328C118.836 28.487 118.799 28.4505 118.727 28.5234C118.344 28.9245 117.779 29.2891 117.031 29.6172C116.302 29.9453 115.509 30.1094 114.652 30.1094C113.941 30.1094 113.312 29.8906 112.766 29.4531C112.237 29.0156 111.827 28.4323 111.535 27.7031C111.243 26.9557 111.098 26.1354 111.098 25.2422V22.5898C111.098 21.569 110.934 20.8854 110.605 20.5391C110.46 20.3568 110.259 20.2292 110.004 20.1562C109.767 20.0833 109.557 20.0378 109.375 20.0195C109.193 19.9831 109.102 19.9466 109.102 19.9102C109.102 19.2721 109.147 18.9531 109.238 18.9531C109.402 18.9531 109.703 18.9167 110.141 18.8438C110.596 18.7708 111.089 18.6888 111.617 18.5977C112.146 18.4883 112.647 18.3789 113.121 18.2695C113.613 18.1419 113.987 18.0417 114.242 17.9688C114.297 17.9505 114.342 17.9323 114.379 17.9141C114.434 17.8958 114.488 17.8867 114.543 17.8867C114.634 17.8867 114.725 17.9505 114.816 18.0781C114.908 18.1875 114.953 18.2786 114.953 18.3516C114.862 19.1536 114.789 19.7826 114.734 20.2383C114.68 20.694 114.652 20.9766 114.652 21.0859V24.0117C114.652 25.4336 114.835 26.4362 115.199 27.0195C115.564 27.5846 116.174 27.8672 117.031 27.8672C117.651 27.8672 118.116 27.7305 118.426 27.457C118.736 27.1654 118.891 26.8464 118.891 26.5V22.5898C118.891 21.569 118.727 20.8854 118.398 20.5391C118.253 20.3568 118.052 20.2292 117.797 20.1562C117.56 20.0833 117.35 20.0378 117.168 20.0195C116.986 19.9831 116.895 19.9466 116.895 19.9102C116.895 19.2721 116.94 18.9531 117.031 18.9531C117.195 18.9531 117.496 18.9167 117.934 18.8438C118.389 18.7708 118.882 18.6888 119.41 18.5977C119.939 18.4883 120.44 18.3789 120.914 18.2695C121.406 18.1419 121.78 18.0417 122.035 17.9688L122.336 17.8867C122.427 17.8867 122.518 17.9505 122.609 18.0781C122.701 18.1875 122.746 18.2786 122.746 18.3516C122.655 19.1536 122.582 19.7826 122.527 20.2383C122.473 20.694 122.445 20.9674 122.445 21.0586V26.418C122.445 27.3841 122.536 27.9583 122.719 28.1406C122.81 28.2318 122.956 28.3047 123.156 28.3594C123.357 28.3958 123.557 28.4141 123.758 28.4141H124.031C124.104 28.4323 124.141 28.5052 124.141 28.6328C124.141 29.1615 124.086 29.4258 123.977 29.4258C122.846 29.5352 121.898 29.6445 121.133 29.7539C120.385 29.8633 119.802 29.9635 119.383 30.0547L119 30.1367ZM128.133 30.2461C128.096 30.2461 128.005 30.2005 127.859 30.1094C127.714 30.0365 127.577 29.9453 127.449 29.8359C127.322 29.7266 127.258 29.6445 127.258 29.5898C127.258 29.4805 127.294 29.1523 127.367 28.6055C127.44 28.0586 127.477 27.3568 127.477 26.5V15.4805C127.477 14.7148 127.422 14.0586 127.312 13.5117C127.24 13.2201 126.766 13.0742 125.891 13.0742H125.645C125.535 13.0742 125.48 12.8919 125.48 12.5273C125.48 12.2174 125.535 12.0625 125.645 12.0625C126.702 11.9714 127.695 11.8164 128.625 11.5977C129.573 11.3789 130.247 11.2057 130.648 11.0781L130.922 10.9961H130.977C131.049 10.9961 131.122 11.0508 131.195 11.1602C131.268 11.2695 131.314 11.3698 131.332 11.4609C131.132 12.3177 131.031 13.2383 131.031 14.2227V18.2148C131.031 18.3971 131.04 18.5156 131.059 18.5703C131.077 18.6068 131.122 18.6068 131.195 18.5703C131.87 18.0417 132.663 17.7773 133.574 17.7773C134.668 17.7773 135.671 18.0508 136.582 18.5977C137.493 19.1263 138.223 19.8464 138.77 20.7578C139.316 21.6693 139.59 22.6901 139.59 23.8203C139.59 25.0234 139.298 26.1081 138.715 27.0742C138.15 28.0404 137.384 28.806 136.418 29.3711C135.452 29.9362 134.367 30.2188 133.164 30.2188C132.508 30.2188 131.988 30.1732 131.605 30.082C131.241 30.0091 130.922 29.9362 130.648 29.8633C130.375 29.7721 130.038 29.7266 129.637 29.7266C129.363 29.7266 129.081 29.8177 128.789 30C128.497 30.1641 128.279 30.2461 128.133 30.2461ZM133.246 28.7422C134.066 28.7422 134.668 28.3776 135.051 27.6484C135.452 26.901 135.652 25.9258 135.652 24.7227C135.652 21.2044 134.859 19.4453 133.273 19.4453C132.562 19.4453 132.007 19.6458 131.605 20.0469C131.223 20.4479 131.031 20.8672 131.031 21.3047V26.4727C131.031 27.2018 131.241 27.7669 131.66 28.168C132.079 28.5508 132.608 28.7422 133.246 28.7422Z" fill="black"/>
<defs>
<clipPath id="clip0_117_3">
<rect width="124" height="31.86" fill="white" transform="translate(0 5)"/>
</clipPath>
</defs>
</svg>
